<mxfile host="app.diagrams.net" modified="2022-03-15T16:19:46.020Z" agent="5.0 (Windows NT 10.0; Win64; x64) AppleWebKit/537.36 (KHTML, like Gecko) Chrome/99.0.4844.51 Safari/537.36" etag="JGkBjKGqZYe9CCCYTy3N" version="17.1.3" type="github">
  <diagram id="qvCPpZ6gnQ1IdlX2_nFw" name="Page-1">
    <mxGraphModel dx="942" dy="621" grid="1" gridSize="10" guides="1" tooltips="1" connect="1" arrows="1" fold="1" page="1" pageScale="1" pageWidth="827" pageHeight="1169" math="0" shadow="0">
      <root>
        <mxCell id="0" />
        <mxCell id="1" parent="0" />
        <mxCell id="40OjUSW3HfGRULSFvK9s-1" value="hihohio" style="rounded=0;whiteSpace=wrap;html=1;" vertex="1" parent="1">
          <mxGeometry x="110" y="80" width="190" height="110" as="geometry" />
        </mxCell>
      </root>
    </mxGraphModel>
  </diagram>
</mxfile>
